<svg xmlns="http://www.w3.org/2000/svg" xmlns:xlink="http://www.w3.org/1999/xlink" width="174.009" height="33.001" viewBox="0 0 174.009 33.001">
  <defs>
    <linearGradient id="linear-gradient" x1="0.5" x2="0.5" y2="1" gradientUnits="objectBoundingBox">
      <stop offset="0" stop-color="#e7647f"/>
      <stop offset="1" stop-color="#743240"/>
    </linearGradient>
  </defs>
  <g id="Group_15" data-name="Group 15" transform="translate(-1433.991 -467)">
    <text id="desidiariess" transform="translate(1481 494)" fill="#1f1e2c" font-size="25" font-family="SegoeUI, Segoe UI"><tspan x="0" y="0">desidiariess</tspan></text>
    <path id="instagram" d="M16.316,32H16c-2.508.006-4.826-.058-7.08-.195a9.464,9.464,0,0,1-5.455-2.065,8.757,8.757,0,0,1-2.942-4.75,21.05,21.05,0,0,1-.483-5.027C.02,18.8,0,17.413,0,16s.02-2.8.036-3.966A21.053,21.053,0,0,1,.519,7.012a8.757,8.757,0,0,1,2.942-4.75A9.464,9.464,0,0,1,8.917.2C11.171.06,13.49,0,16,0S20.829.06,23.083.2a9.464,9.464,0,0,1,5.455,2.065,8.755,8.755,0,0,1,2.942,4.75,21.052,21.052,0,0,1,.483,5.027C31.98,13.207,32,14.591,32,16V16c0,1.408-.02,2.792-.036,3.96a21.04,21.04,0,0,1-.483,5.027,8.755,8.755,0,0,1-2.942,4.75,9.464,9.464,0,0,1-5.455,2.065c-2.159.131-4.376.2-6.768.2ZM16,29.5c2.468.006,4.733-.056,6.934-.19A6.887,6.887,0,0,0,26.959,27.8a6.312,6.312,0,0,0,2.1-3.431,19.151,19.151,0,0,0,.406-4.443c.016-1.16.032-2.535.036-3.929s-.02-2.769-.036-3.929a19.155,19.155,0,0,0-.406-4.443,6.312,6.312,0,0,0-2.1-3.431,6.888,6.888,0,0,0-4.027-1.507c-2.2-.134-4.467-.2-6.929-.19s-4.733.056-6.934.19A6.888,6.888,0,0,0,5.042,4.2a6.312,6.312,0,0,0-2.1,3.431,19.153,19.153,0,0,0-.406,4.443C2.52,13.234,2.5,14.609,2.5,16s.02,2.765.036,3.926a19.151,19.151,0,0,0,.406,4.443,6.312,6.312,0,0,0,2.1,3.431,6.888,6.888,0,0,0,4.027,1.507C11.27,29.445,13.536,29.508,16,29.5Zm-.06-5.687A7.813,7.813,0,1,1,23.75,16,7.822,7.822,0,0,1,15.938,23.815Zm0-13.126A5.313,5.313,0,1,0,21.25,16,5.319,5.319,0,0,0,15.938,10.689Zm8.688-5A1.875,1.875,0,1,0,26.5,7.564,1.875,1.875,0,0,0,24.625,5.689Zm0,0" transform="translate(1433.991 467.999)" fill="url(#linear-gradient)"/>
  </g>
</svg>
