<svg xmlns="http://www.w3.org/2000/svg" width="17.301" height="32" viewBox="0 0 17.301 32">
  <g id="facebook-logo" transform="translate(-19.548 -3)">
    <path id="Path_1" data-name="Path 1" d="M38.726.007,34.577,0C29.915,0,26.9,3.091,26.9,7.875v3.631H22.729a.653.653,0,0,0-.652.653V17.42a.652.652,0,0,0,.652.652H26.9V31.347a.652.652,0,0,0,.652.652H33a.652.652,0,0,0,.652-.652V18.073h4.878a.652.652,0,0,0,.652-.652l0-5.261a.653.653,0,0,0-.653-.653h-4.88V8.428c0-1.479.353-2.23,2.28-2.23h2.8a.652.652,0,0,0,.652-.652V.659A.653.653,0,0,0,38.726.007Z" transform="translate(-2.529 3)" fill="#fff"/>
  </g>
</svg>
